<?xml version="1.0" encoding="UTF-8"?>
<svg xmlns="http://www.w3.org/2000/svg" viewBox="0 0 640 260" shape-rendering="crispEdges">
  <rect width="640" height="260" fill="none"/>
  <g fill="#4eaa68">
    <path d="M0 260V160h28v-28h42v48h44v-70h54v42h46v108z"/>
    <path d="M196 260V138h54v-34h58v76h42v-48h46v128z"/>
    <path d="M372 260V154h38v-38h62v58h34v-30h46v116z"/>
    <path d="M530 260V132h52v-28h58v156z"/>
  </g>
  <g fill="#73cc70">
    <rect x="14" y="148" width="48" height="16"/>
    <rect x="222" y="122" width="66" height="16"/>
    <rect x="402" y="136" width="68" height="14"/>
    <rect x="548" y="120" width="70" height="16"/>
  </g>
  <g fill="#2f8a59" opacity=".52">
    <rect x="60" y="182" width="16" height="78"/>
    <rect x="132" y="162" width="18" height="98"/>
    <rect x="298" y="184" width="16" height="76"/>
    <rect x="454" y="180" width="16" height="80"/>
    <rect x="584" y="148" width="18" height="112"/>
  </g>
</svg>